<svg width="26" height="26" viewBox="0 0 26 26" fill="none" xmlns="http://www.w3.org/2000/svg">
<path d="M12.9709 0.972871C12.4408 0.980639 11.9355 1.19853 11.5659 1.57868C11.1964 1.95882 10.9929 2.47012 11.0002 3.00021V11.0002H3.00016C2.73514 10.9965 2.47202 11.0454 2.22608 11.1443C1.98014 11.2431 1.7563 11.3898 1.56756 11.5759C1.37882 11.762 1.22895 11.9837 1.12665 12.2282C1.02436 12.4728 0.97168 12.7352 0.97168 13.0002C0.97168 13.2653 1.02436 13.5277 1.12665 13.7722C1.22895 14.0167 1.37882 14.2384 1.56756 14.4245C1.7563 14.6106 1.98014 14.7573 2.22608 14.8562C2.47202 14.955 2.73514 15.004 3.00016 15.0002H11.0002V23.0002C10.9964 23.2652 11.0454 23.5284 11.1442 23.7743C11.243 24.0202 11.3898 24.2441 11.5758 24.4328C11.7619 24.6216 11.9837 24.7714 12.2282 24.8737C12.4727 24.976 12.7351 25.0287 13.0002 25.0287C13.2652 25.0287 13.5276 24.976 13.7721 24.8737C14.0167 24.7714 14.2384 24.6216 14.4245 24.4328C14.6106 24.2441 14.7573 24.0202 14.8561 23.7743C14.955 23.5284 15.0039 23.2652 15.0002 23.0002V15.0002H23.0002C23.2652 15.004 23.5283 14.955 23.7743 14.8562C24.0202 14.7573 24.244 14.6106 24.4328 14.4245C24.6215 14.2384 24.7714 14.0167 24.8737 13.7722C24.976 13.5277 25.0286 13.2653 25.0286 13.0002C25.0286 12.7352 24.976 12.4728 24.8737 12.2282C24.7714 11.9837 24.6215 11.762 24.4328 11.5759C24.244 11.3898 24.0202 11.2431 23.7743 11.1443C23.5283 11.0454 23.2652 10.9965 23.0002 11.0002H15.0002V3.00021C15.0038 2.7328 14.9538 2.46737 14.8531 2.21962C14.7524 1.97187 14.603 1.74684 14.4138 1.55782C14.2246 1.3688 13.9994 1.21965 13.7516 1.11918C13.5038 1.0187 13.2383 0.968955 12.9709 0.972871Z" fill="#676669"/>
</svg>
